# xmcd
#
# Track frame offsets:
# 150
# 15105
# 26912
# 37002
# 59956
# 75718
# 86141
# 97948
# 113434
# 126136
# 148054
# 162004
# 172382
# 181987
#
# Disc length: 2573 seconds
#
# Revision: 0
# Processed by: cddbd v1.5.1PL2 Copyright (c) Steve Scherf et al.
# Submitted via: Audion 3.0.2 (http://www.panic.com/audion/)
#
DISCID=b90a0b0e
DTITLE=Orig. Bregenzerwälder Dorfmusikanten - Ein Stück Heimat Im Herzen (2006)
DYEAR=1900
DGENRE=
TTITLE0=ein skueck heimat im herzen
TTITLE1=lasst uns freunde sein
TTITLE2=hoch von der kanisfluh
TTITLE3=schlagerhits medley
TTITLE4=sehnsucht in die weite welt
TTITLE5=lieb und lust und kein frust
TTITLE6=wie ein traum stehst du vor mir
TTITLE7=ein frohes herz ist wie ein talismann
TTITLE8=im birkenwald
TTITLE9=polkahits - nonstop medley
TTITLE10=unter suedlichen sternen
TTITLE11=schornsteinfeger bring mir glueck
TTITLE12=freunde aus der schweiz
TTITLE13=susanna susanna susanna
EXTD=
EXTT0=
EXTT1=
EXTT2=
EXTT3=
EXTT4=
EXTT5=
EXTT6=
EXTT7=
EXTT8=
EXTT9=
EXTT10=
EXTT11=
EXTT12=
EXTT13=
PLAYORDER=
